<svg id="Calque_2" data-name="Calque 2" xmlns="http://www.w3.org/2000/svg" viewBox="0 0 118 43.6"><defs><mask id="mask" x="0" y="11.32" width="23.5" height="26.7" maskUnits="userSpaceOnUse"><g id="mask-2"><path id="path-1" class="cls-4" d="M0 11.32h23.4v26.7H0v-26.7z"/></g></mask><mask id="mask-1" x="0" y="0" width="118" height="43.6" maskUnits="userSpaceOnUse"><g id="mask-4"><path id="path-3" class="cls-4" d="M0 43.6h118V0H0v43.6z"/></g></mask><mask id="mask-2-2" data-name="mask-2" x="0" y="0" width="118" height="43.6" maskUnits="userSpaceOnUse"><g id="mask-4-2" data-name="mask-4"><path id="path-3-2" data-name="path-3" class="cls-4" d="M0 43.6h118V0H0v43.6z"/></g></mask><mask id="mask-3" x="0" y="0" width="118" height="43.6" maskUnits="userSpaceOnUse"><g id="mask-4-3" data-name="mask-4"><path id="path-3-3" data-name="path-3" class="cls-4" d="M0 43.6h118V0H0v43.6z"/></g></mask><mask id="mask-4-4" data-name="mask-4" x="0" y="0" width="118" height="43.6" maskUnits="userSpaceOnUse"><g id="mask-4-5" data-name="mask-4"><path id="path-3-4" data-name="path-3" class="cls-4" d="M0 43.6h118V0H0v43.6z"/></g></mask><mask id="mask-5" x="0" y="0" width="118" height="43.6" maskUnits="userSpaceOnUse"><g id="mask-4-6" data-name="mask-4"><path id="path-3-5" data-name="path-3" class="cls-4" d="M0 43.6h118V0H0v43.6z"/></g></mask><mask id="mask-6" x="0" y="0" width="118" height="43.6" maskUnits="userSpaceOnUse"><g id="mask-4-7" data-name="mask-4"><path id="path-3-6" data-name="path-3" class="cls-4" d="M0 43.6h118V0H0v43.6z"/></g></mask><style>.cls-4{fill:#fff;fill-rule:evenodd}</style></defs><g id="Calque_1-2" data-name="Calque 1"><g id="maquette-v3"><g id="Homepage-menu-open"><g id="Logo"><g style="mask:url(#mask)" id="Group-3"><path id="Fill-1" class="cls-4" d="M17.9 22.02c0-3.5-2.4-5.8-5.9-5.8s-6 2-6 5.8h11.9Zm-5.8-10.7c6.4 0 11.4 5 11.4 11.4 0 .9 0 2-.3 3.7H5.8c0 3.6 1.8 6.6 6.4 6.6 3.3 0 4.5-1.5 5.2-3.3h5.8c-.8 4.4-4.7 8.3-11 8.3C4 38.02 0 31.52 0 24.62c0-7.6 4.4-13.3 12.1-13.3Z"/></g><g style="mask:url(#mask-1)"><path id="Fill-4" class="cls-4" d="M29.3 37.2h6.1V12.5h-6.1v24.7Zm3-37.2c2.3 0 4.1 1.7 4.1 3.9s-1.8 3.8-4.1 3.8-4-1.7-4-3.8 1.8-3.9 4-3.9Z"/></g><g style="mask:url(#mask-2-2)"><path id="Fill-6" class="cls-4" d="M41.2 37.2V0h5.9v23.4l9.4-11h7.3L53.3 24.8l10.5 12.4h-7.3l-9.4-10.9v10.9h-5.9z"/></g><g style="mask:url(#mask-3)"><path id="Fill-7" class="cls-4" d="M75.9 32.7c4.6 0 7.7-3.7 7.7-8.1s-3.1-8.1-7.7-8.1-7.6 3.7-7.6 8.1 3 8.1 7.6 8.1m0-21.4c8.3 0 13.8 6.1 13.8 13.3S84.2 38 75.9 38s-13.7-6.1-13.7-13.3 5.5-13.4 13.7-13.4"/></g><g style="mask:url(#mask-4-4)"><path id="Fill-8" class="cls-4" d="M92.9 37.2V12h5.9v3.5c1.6-2.8 4.5-4.2 8.3-4.2s6.1 1.3 7.6 3.4c1.3 1.9 1.6 4 1.6 7.5v15h-5.9v-13c0-4.3-1.3-7.6-5.5-7.6s-6.1 3.3-6.1 7.6v13h-5.9Z"/></g><g style="mask:url(#mask-5)"><path id="Fill-9" class="cls-4" d="M52.1 41.2H.8v2.4h52.5l-1.2-2.4z"/></g><g style="mask:url(#mask-6)"><path id="Fill-10" class="cls-4" d="m54.2 41.2 1.2 2.4H118v-2.4H54.2z"/></g></g></g></g></g></svg>