<svg id="Calque_2" data-name="Calque 2" xmlns="http://www.w3.org/2000/svg" viewBox="0 0 73.7 72.8"><defs><style>.cls-1{fill:#fff}</style></defs><g id="Layer_1" data-name="Layer 1"><path class="cls-1" d="M.4 34.8v1.5c4.4-1.1 9.1-3.8 11.7-6.2 1.7-1.6 3.2-3.5 4.4-5.7 0 0 .1-.1.1-.2 1.1-2 1.9-4.4 2.5-7.2 1.6-7.7-.8-15.4-1.3-16.4-.6-.7-1.4-.6-2-.6H.4v17.6h11.8c.4.1.7.3.7.7v.3c0 3.5-1.7 10.4-11.6 14.8l-.9.4v1ZM.4 44.7h3.9v.6H1.2v1.8h2.9v.6H1.2v1.9h3.1v.6H.4v-5.5ZM6.6 45.3H4.8v-.6h4.5v.6H7.4v5h-.8v-5ZM10.8 44.7h.8l2.2 5.6H13l-.6-1.7H10l-.6 1.7h-.8l2.2-5.6Zm-.6 3.3h1.9l-.9-2.6-1 2.6ZM15.1 45.3h-1.9v-.6h4.5v.6h-1.9v5h-.7v-5ZM20.8 44.7h1.9c1.7 0 2.7.9 2.7 2.7 0 1.9-.8 2.9-2.7 2.9h-1.9v-5.6Zm.7 5h1.2c.5 0 1.9-.1 1.9-2.2 0-1.3-.5-2.1-1.9-2.1h-1.3v4.3h.1ZM26.4 44.7h3.9v.6h-3.1v1.8h2.9v.6h-2.9v1.9h3.1v.6h-3.9v-5.5ZM33.7 44.7h3.7v.6h-2.9v1.8h2.6v.6h-2.6v2.6h-.7v-5.6h-.1ZM38.3 44.7h2.6c1 0 1.7.6 1.7 1.5 0 .7-.3 1.2-1 1.4.7.1.8.6.8 1.2 0 .5 0 1.2.3 1.5h-.8c-.2-.2-.1-.8-.2-1.4-.1-.5-.2-1-.9-1h-1.7v2.4h-.7v-5.6h-.1Zm2.3 2.6c.7 0 1.3-.2 1.3-1 0-.5-.3-1-1-1h-1.8v1.9h1.5v.1ZM43.9 44.7h.7v5.6h-.7v-5.6ZM46 44.7h2c.5 0 1.1 0 1.5.2s.7.6.7 1.2-.3 1-.8 1.3c.7.1 1.1.7 1.1 1.3 0 .8-.6 1.6-1.7 1.6h-2.7v-5.6H46Zm.8 2.4h1.5c.8 0 1.2-.3 1.2-.9 0-.8-.5-.9-1.2-.9h-1.5v1.8Zm0 2.6h1.9c.6 0 1-.4 1-1 0-.7-.6-.9-1.2-.9h-1.7v1.9ZM53.9 44.6c1.8 0 2.7 1.4 2.7 2.9s-.9 2.9-2.7 2.9-2.7-1.4-2.7-2.9.9-2.9 2.7-2.9Zm0 5.2c1.4 0 1.9-1.2 1.9-2.3s-.6-2.3-1.9-2.3c-1.4 0-1.9 1.2-1.9 2.3 0 1.1.5 2.3 1.9 2.3ZM62.1 48.3c0 1.4-.8 2.2-2.2 2.2s-2.3-.7-2.3-2.2v-3.6h.7v3.6c0 1 .6 1.5 1.5 1.5s1.5-.5 1.5-1.5v-3.6h.8v3.6ZM63.4 44.7h2.7c1 0 1.7.6 1.7 1.5 0 .7-.3 1.2-1 1.4.7.1.8.6.8 1.2 0 .5 0 1.2.3 1.5h-.8c-.2-.2-.1-.8-.2-1.4-.1-.5-.2-1-.9-1h-1.8v2.4h-.7v-5.6h-.1Zm2.3 2.6c.7 0 1.3-.2 1.3-1 0-.5-.3-1-1-1h-1.8v1.9h1.5v.1ZM73.1 49.6c-.4.6-1.1.8-1.8.8-1.7 0-2.7-1.4-2.7-2.8 0-1.6.9-3 2.7-3 1.2 0 2.2.5 2.4 1.9H73c-.1-.8-.8-1.2-1.7-1.2-1.4 0-1.9 1.2-1.9 2.4s.7 2.2 1.9 2.2 1.8-.8 1.8-1.8h-1.8v-.6h2.4v2.9h-.5l-.1-.8ZM3.6 57.5c-.1-.8-.6-1.1-1.4-1.1-.6 0-1.3.2-1.3 1 0 .7.9.8 1.8 1 .9.2 1.8.5 1.8 1.6 0 1.2-1.2 1.7-2.2 1.7-1.3 0-2.3-.6-2.3-2h.7c0 .9.8 1.3 1.6 1.3.7 0 1.4-.2 1.4-1s-.9-.9-1.8-1.1C1 58.7.1 58.4.1 57.4c0-1.1 1-1.6 2-1.6 1.1 0 2 .5 2.1 1.8h-.6v-.1ZM6.6 56.5H4.7v-.6h4.5v.6H7.3v5h-.7v-5ZM10.8 55.9h.8l2.2 5.6H13l-.6-1.7H10l-.6 1.7h-.8l2.2-5.6Zm-.6 3.3h1.9l-.9-2.6-1 2.6Z"/><path class="cls-1" d="M16 55.9h.8l2.2 5.6h-.8l-.6-1.7h-2.4l-.6 1.7h-.8l2.2-5.6Zm-.6 3.3h1.9l-.9-2.6-1 2.6ZM20.3 56.5h-1.9v-.6h4.5v.6H21v5h-.7v-5ZM26 55.9h3.7v.6h-2.9v1.8h2.6v.6h-2.6v2.6h-.7v-5.6H26ZM30.6 55.9h2.6c1 0 1.7.6 1.7 1.5 0 .7-.3 1.2-1 1.4.6.1.8.6.8 1.2 0 .5 0 1.2.3 1.5h-.8c-.2-.2-.1-.8-.2-1.4-.1-.5-.2-1-.9-1h-1.8v2.4h-.7v-5.6Zm2.3 2.6c.7 0 1.3-.2 1.3-1 0-.5-.3-1-1-1h-1.8v1.9h1.5v.1ZM36.1 55.9H40v.6h-3.1v1.8h2.9v.6h-2.9v1.9H40v.6h-3.9v-5.5ZM41.1 55.9h.7v5.6h-.7v-5.6ZM43.2 55.9h2c.5 0 1.1 0 1.5.2s.7.6.7 1.2-.3 1-.8 1.3c.7.1 1.1.7 1.1 1.3 0 .8-.6 1.6-1.7 1.6h-2.7v-5.6h-.1Zm.8 2.4h1.5c.8 0 1.2-.3 1.2-.9 0-.8-.5-.9-1.2-.9H44v1.8Zm0 2.6h1.9c.6 0 1-.4 1-1 0-.7-.6-.9-1.2-.9H44v1.9ZM53.2 59.5c0 1.4-.8 2.2-2.2 2.2s-2.3-.7-2.3-2.2v-3.6h.7v3.6c0 1 .6 1.5 1.5 1.5s1.5-.5 1.5-1.5v-3.6h.7v3.6h.1ZM54.5 55.9h2.6c1 0 1.7.6 1.7 1.5 0 .7-.3 1.2-1 1.4.6.1.8.6.8 1.2 0 .5 0 1.2.3 1.5h-.8c-.2-.2-.1-.8-.2-1.4-.1-.5-.2-1-.9-1h-1.8v2.4h-.7v-5.6Zm2.3 2.6c.7 0 1.3-.2 1.3-1 0-.5-.3-1-1-1h-1.8v1.9h1.5v.1ZM64.2 60.8c-.4.6-1.1.8-1.8.8-1.7 0-2.7-1.4-2.7-2.8 0-1.6.9-3 2.7-3 1.2 0 2.2.5 2.4 1.9h-.7c-.1-.8-.8-1.2-1.7-1.2-1.4 0-1.9 1.2-1.9 2.4s.7 2.2 1.9 2.2 1.8-.8 1.8-1.8h-1.8v-.6h2.4v2.9h-.5l-.1-.8ZM3.9 72.7h-.5l-.9-3.2-.9 3.2h-.5l-1-3.8h.5l.8 3.1.9-3.2h.6l.7 3.2.8-3.2h.5l-1 3.9ZM9 72.7h-.5l-.9-3.2-.9 3.2h-.5l-1-3.8h.5l.8 3.1.9-3.2H8l.7 3.2.8-3.2h.5l-1 3.9ZM14.1 72.7h-.5l-.9-3.2-.9 3.2h-.5l-1-3.8h.5l.8 3.2.9-3.2h.6l.8 3.2.8-3.2h.4l-1 3.8ZM15.3 72.1h.6v.6h-.6v-.6ZM16.9 68.8h2.5v.4h-2v1.2h1.8v.4h-1.8v1.8h-.5v-3.8ZM20.1 68.8h1.8c.7 0 1.2.4 1.2 1 0 .5-.2.8-.7 1 .4.1.5.4.6.8 0 .4 0 .8.2 1.1h-.6c-.1-.2-.1-.6-.1-.9-.1-.4-.1-.7-.6-.7h-1.2v1.6h-.6v-3.9Zm1.6 1.8c.5 0 .9-.1.9-.7 0-.4-.2-.7-.7-.7h-1.3v1.3h1.1v.1ZM23.9 72.1h.6v.6h-.6v-.6ZM28.2 70c-.1-.5-.5-.8-1.1-.8-.9 0-1.3.8-1.3 1.6 0 .9.4 1.6 1.3 1.6.7 0 1.1-.5 1.1-1.1h.5c-.1 1-.7 1.5-1.7 1.5-1.2 0-1.8-.9-1.8-2s.6-2 1.8-2c.8 0 1.5.4 1.6 1.2h-.4ZM29.5 68.8h.5v1.6h2v-1.6h.5v3.8H32v-1.8h-2v1.8h-.5v-3.8Z"/></g></svg>