<svg id="Calque_2" data-name="Calque 2" xmlns="http://www.w3.org/2000/svg" viewBox="0 0 69.78 69.78"><g id="Calque_2-2" data-name="Calque 2"><path d="M34.89 0C15.62 0 0 15.62 0 34.89s15.62 34.89 34.89 34.89 34.89-15.62 34.89-34.89S54.16 0 34.89 0Zm1.05 63.71c-15.45 0-27.97-12.52-27.97-27.97S20.49 7.77 35.94 7.77s27.97 12.52 27.97 27.97-12.52 27.97-27.97 27.97Z"/><path d="M36.67 11.11c-13.67 0-24.75 11.14-24.75 24.88S23 60.87 36.67 60.87s24.75-11.14 24.75-24.88-11.08-24.88-24.75-24.88Zm.75 45.43c-10.96 0-19.84-8.93-19.84-19.95s8.88-19.95 19.84-19.95 19.84 8.93 19.84 19.95-8.88 19.95-19.84 19.95Z"/><path d="M37.83 20.04c-9.21 0-16.67 7.5-16.67 16.76s7.46 16.76 16.67 16.76S54.5 46.06 54.5 36.8s-7.46-16.76-16.67-16.76Zm.5 30.6c-7.38 0-13.36-6.01-13.36-13.43s5.98-13.43 13.36-13.43 13.36 6.01 13.36 13.43-5.98 13.43-13.36 13.43Z"/><path d="M38.33 26.95c-5.63 0-10.2 4.59-10.2 10.25s4.57 10.25 10.2 10.25 10.2-4.59 10.2-10.25-4.57-10.25-10.2-10.25Zm.31 18.73c-4.52 0-8.18-3.68-8.18-8.22s3.66-8.22 8.18-8.22 8.18 3.68 8.18 8.22-3.66 8.22-8.18 8.22Z"/></g></svg>