<svg id="Calque_2" data-name="Calque 2" xmlns="http://www.w3.org/2000/svg" viewBox="0 0 200.32 70"><defs><style>.cls-1{fill:#fff}</style></defs><g id="Layer_1" data-name="Layer 1"><path class="cls-1" d="M136.08 27.29c-9.3 0-17.14 5.98-20.06 14.27a21.488 21.488 0 0 0-8.17-10.6c-3.08-2.09-5.11-5.59-5.11-9.56 0-6.3 5.19-11.44 11.53-11.44V.09c-11.76 0-21.38 9.49-21.38 21.31 0 7.35 3.72 13.85 9.37 17.7 3.09 2.09 5.13 5.61 5.13 9.59 0 6.29-5.19 11.44-11.53 11.44s-11.44-5.15-11.44-11.44h-9.87c0 11.72 9.58 21.3 21.31 21.3 9.29 0 17.23-5.94 20.17-14.25 2.93 8.28 10.83 14.25 20.06 14.25 11.77 0 21.4-9.49 21.4-21.31 0-11.81-9.59-21.4-21.4-21.4m0 32.84c-6.29 0-11.44-5.15-11.44-11.44s5.15-11.53 11.44-11.53 11.53 5.19 11.53 11.53-5.18 11.44-11.53 11.44"/><path class="cls-1" d="M190.32 69.05h10V48.7c0-11.81-9.71-21.4-21.44-21.4s-21.4 9.59-21.4 21.4v20.38h9.87V48.7c0-6.29 5.19-11.53 11.53-11.53s11.44 5.24 11.44 11.53v20.35ZM57.71 26.39c-6.56 0-12.45 3.02-16.36 7.72-3.92-4.7-9.82-7.72-16.38-7.72h-2.65v-5.08c0-6.29 5.19-11.44 11.53-11.44V0C22.08 0 12.44 9.5 12.44 21.31v5.08H0v9.87h12.44v32.87h9.87V36.26h2.65c6.31 0 11.44 5.13 11.44 11.44v21.38h9.87V47.7c0-6.31 5.15-11.44 11.44-11.44h2.65v32.83h9.87v-42.7H57.71ZM90.2 26.39l-15.7 9.86v10.12l15.7-9.62V26.39z"/><path class="cls-1" d="M60.36.1h9.86v23.63h-9.86z"/></g></svg>