<?xml version="1.0" encoding="UTF-8"?>
<svg id="Calque_2" data-name="Calque 2" xmlns="http://www.w3.org/2000/svg" xmlns:xlink="http://www.w3.org/1999/xlink" viewBox="0 0 118 43.6">
  <defs>
    <style>
      .cls-1 {
        mask: url(#mask);
      }

      .cls-2 {
        mask: url(#mask-2-2);
      }

      .cls-3 {
        mask: url(#mask-4-4);
      }

      .cls-4 {
        fill: #fff;
        fill-rule: evenodd;
      }

      .cls-5 {
        mask: url(#mask-3);
      }

      .cls-6 {
        mask: url(#mask-5);
      }

      .cls-7 {
        mask: url(#mask-1);
      }

      .cls-8 {
        mask: url(#mask-6);
      }
    </style>
    <mask id="mask" x="0" y="11.32" width="23.5" height="26.7" maskUnits="userSpaceOnUse">
      <g id="mask-2">
        <polygon id="path-1" class="cls-4" points="0 11.32 23.4 11.32 23.4 38.02 0 38.02 0 11.32"/>
      </g>
    </mask>
    <mask id="mask-1" x="0" y="0" width="118" height="43.6" maskUnits="userSpaceOnUse">
      <g id="mask-4">
        <polygon id="path-3" class="cls-4" points="0 43.6 118 43.6 118 0 0 0 0 43.6"/>
      </g>
    </mask>
    <mask id="mask-2-2" data-name="mask-2" x="0" y="0" width="118" height="43.6" maskUnits="userSpaceOnUse">
      <g id="mask-4-2" data-name="mask-4">
        <polygon id="path-3-2" data-name="path-3" class="cls-4" points="0 43.6 118 43.6 118 0 0 0 0 43.6"/>
      </g>
    </mask>
    <mask id="mask-3" x="0" y="0" width="118" height="43.6" maskUnits="userSpaceOnUse">
      <g id="mask-4-3" data-name="mask-4">
        <polygon id="path-3-3" data-name="path-3" class="cls-4" points="0 43.6 118 43.6 118 0 0 0 0 43.6"/>
      </g>
    </mask>
    <mask id="mask-4-4" data-name="mask-4" x="0" y="0" width="118" height="43.6" maskUnits="userSpaceOnUse">
      <g id="mask-4-5" data-name="mask-4">
        <polygon id="path-3-4" data-name="path-3" class="cls-4" points="0 43.6 118 43.6 118 0 0 0 0 43.6"/>
      </g>
    </mask>
    <mask id="mask-5" x="0" y="0" width="118" height="43.6" maskUnits="userSpaceOnUse">
      <g id="mask-4-6" data-name="mask-4">
        <polygon id="path-3-5" data-name="path-3" class="cls-4" points="0 43.6 118 43.6 118 0 0 0 0 43.6"/>
      </g>
    </mask>
    <mask id="mask-6" x="0" y="0" width="118" height="43.6" maskUnits="userSpaceOnUse">
      <g id="mask-4-7" data-name="mask-4">
        <polygon id="path-3-6" data-name="path-3" class="cls-4" points="0 43.6 118 43.6 118 0 0 0 0 43.6"/>
      </g>
    </mask>
  </defs>
  <g id="Calque_1-2" data-name="Calque 1">
    <g id="maquette-v3">
      <g id="Homepage-menu-open">
        <g id="Logo">
          <g id="Group-3">
            <g class="cls-1">
              <path id="Fill-1" class="cls-4" d="m17.9,22.02c0-3.5-2.4-5.8-5.9-5.8s-6,2-6,5.8h11.9Zm-5.8-10.7c6.4,0,11.4,5,11.4,11.4,0,.9,0,2-.3,3.7H5.8c0,3.6,1.8,6.6,6.4,6.6,3.3,0,4.5-1.5,5.2-3.3h5.8c-.8,4.4-4.7,8.3-11,8.3-8.2,0-12.2-6.5-12.2-13.4,0-7.6,4.4-13.3,12.1-13.3h0Z"/>
            </g>
          </g>
          <g class="cls-7">
            <path id="Fill-4" class="cls-4" d="m29.3,37.2h6.1V12.5h-6.1s0,24.7,0,24.7ZM32.3,0c2.3,0,4.1,1.7,4.1,3.9s-1.8,3.8-4.1,3.8-4-1.7-4-3.8,1.8-3.9,4-3.9h0Z"/>
          </g>
          <g class="cls-2">
            <polygon id="Fill-6" class="cls-4" points="41.2 37.2 41.2 0 47.1 0 47.1 23.4 56.5 12.4 63.8 12.4 53.3 24.8 63.8 37.2 56.5 37.2 47.1 26.3 47.1 37.2 41.2 37.2"/>
          </g>
          <g class="cls-5">
            <path id="Fill-7" class="cls-4" d="m75.9,32.7c4.6,0,7.7-3.7,7.7-8.1s-3.1-8.1-7.7-8.1-7.6,3.7-7.6,8.1,3,8.1,7.6,8.1m0-21.4c8.3,0,13.8,6.1,13.8,13.3s-5.5,13.4-13.8,13.4-13.7-6.1-13.7-13.3,5.5-13.4,13.7-13.4"/>
          </g>
          <g class="cls-3">
            <path id="Fill-8" class="cls-4" d="m92.9,37.2V12h5.9v3.5c1.6-2.8,4.5-4.2,8.3-4.2s6.1,1.3,7.6,3.4c1.3,1.9,1.6,4,1.6,7.5v15h-5.9v-13c0-4.3-1.3-7.6-5.5-7.6s-6.1,3.3-6.1,7.6v13h-5.9Z"/>
          </g>
          <g class="cls-6">
            <polygon id="Fill-9" class="cls-4" points="52.1 41.2 .8 41.2 .8 43.6 53.3 43.6 52.1 41.2"/>
          </g>
          <g class="cls-8">
            <polygon id="Fill-10" class="cls-4" points="54.2 41.2 55.4 43.6 118 43.6 118 41.2 54.2 41.2"/>
          </g>
        </g>
      </g>
    </g>
  </g>
</svg>