<?xml version="1.0" encoding="UTF-8"?>
<svg id="Calque_1" data-name="Calque 1" xmlns="http://www.w3.org/2000/svg" viewBox="0 0 341.8 72.6">
  <defs>
    <style>
      .cls-1 {
        fill: #fff;
      }
    </style>
  </defs>
  <path class="cls-1" d="m44.2,35.4v11.7c0,2.2-1.8,3.9-3.9,3.9H12.4c-2.2,0-3.9,1.8-3.9,3.9v2.8c0,1,.4,2,1.1,2.8l3.4,3.4c.7.7,1.7,1.1,2.8,1.1h14.2c1,0,2-.4,2.8-1.1l3-3c1.5-1.5,4-1.5,5.5,0h0c1.5,1.5,1.5,4,0,5.5l-5,5c-.7.7-1.7,1.1-2.8,1.1H12c-1,0-2-.4-2.8-1.1L1.1,63.3c-.7-.7-1.1-1.7-1.1-2.7v-25.2c0-1,.4-2,1.1-2.8l8.1-8.1c.7-.7,1.7-1.1,2.8-1.1h20.1c1,0,2,.4,2.8,1.1l8.1,8.1c.7.8,1.2,1.8,1.2,2.8Zm-8.5,4.3v-1.5c0-1-.4-2-1.1-2.8l-3.5-3.4c-.7-.7-1.7-1.1-2.8-1.1h-12.5c-1,0-2,.4-2.8,1.1l-3.4,3.4c-.7.7-1.1,1.7-1.1,2.8v1.5c0,2.2,1.8,3.9,3.9,3.9h19.4c2.1.1,3.9-1.7,3.9-3.9Z"/>
  <path class="cls-1" d="m58.6.8h0c2.3,0,4.2,1.9,4.2,4.2v2.5c0,2.3-1.9,4.2-4.2,4.2h0c-2.3,0-4.2-1.9-4.2-4.2v-2.5c-.1-2.3,1.8-4.2,4.2-4.2Zm0,22.6h0c2.3,0,4.2,1.9,4.2,4.2v40.7c0,2.3-1.9,4.2-4.2,4.2h0c-2.3,0-4.2-1.9-4.2-4.2V27.6c-.1-2.3,1.8-4.2,4.2-4.2Z"/>
  <path class="cls-1" d="m106,71.4l-15.4-15.7c-2.4-2.5-6.6-.7-6.6,2.7v10.4c0,2.1-1.7,3.8-3.8,3.8h-.8c-2.1,0-3.8-1.7-3.8-3.8V3.8C75.6,1.7,77.3,0,79.4,0h.8C82.3,0,84,1.7,84,3.8v33c0,3.4,4.2,5.2,6.6,2.7l14.7-15c.7-.7,1.7-1.2,2.7-1.2h0c3.4,0,5.1,4.1,2.7,6.5l-14.4,14.8c-1.5,1.5-1.5,3.9,0,5.4l15.9,16c2.4,2.4.7,6.5-2.7,6.5h-.7c-1.1.1-2-.3-2.8-1.1Z"/>
  <path class="cls-1" d="m166.1,37.8v20.4c0,2.6-1,5-2.8,6.8l-4.7,4.7c-1.8,1.8-4.3,2.8-6.8,2.8h-15.4c-2.6,0-5-1-6.8-2.8l-4.7-4.7c-1.8-1.8-2.8-4.3-2.8-6.8v-20.4c0-2.6,1-5,2.8-6.8l4.7-4.7c1.8-1.8,4.3-2.8,6.8-2.8h15.4c2.6,0,5,1,6.8,2.8l4.7,4.7c1.8,1.8,2.8,4.2,2.8,6.8Zm-8.4,17.6v-14.8c0-2.6-1-5-2.8-6.8h0c-1.9-1.8-4.3-2.8-6.9-2.8h-7.9c-2.6,0-5,1-6.8,2.8h0c-1.8,1.8-2.8,4.3-2.8,6.8v14.8c0,2.6,1,5,2.8,6.8h0c1.8,1.8,4.3,2.8,6.8,2.8h7.9c2.6,0,5-1,6.8-2.8h0c1.9-1.8,2.9-4.3,2.9-6.8Z"/>
  <path class="cls-1" d="m219.5,33.3v36.4c0,1.6-1.3,2.9-2.9,2.9h-2.7c-1.6,0-2.9-1.3-2.9-2.9v-33.2c0-.8-.3-1.5-.9-2.1l-2.6-2.6c-.5-.5-1.3-.9-2.1-.9h-9.4c-.8,0-1.5.3-2.1.9l-7.7,7.7c-.5.5-.9,1.3-.9,2.1v28.2c0,1.6-1.3,2.9-2.9,2.9h-2.7c-1.6,0-2.9-1.3-2.9-2.9V26.3c0-1.6,1.3-2.9,2.9-2.9h2c1.6,0,2.8,1.2,2.9,2.8h0c.1,2.5,3.2,3.7,5,1.9l3.9-3.9c.5-.5,1.3-.9,2.1-.9h13.9c.8,0,1.5.3,2.1.9l7,7c.6.6.9,1.3.9,2.1Z"/>
  <path class="cls-1" d="m235.7.8h0c2.3,0,4.2,1.9,4.2,4.2v2.5c0,2.3-1.9,4.2-4.2,4.2h0c-2.3,0-4.2-1.9-4.2-4.2v-2.5c0-2.3,1.9-4.2,4.2-4.2Zm0,22.6h0c2.3,0,4.2,1.9,4.2,4.2v40.7c0,2.3-1.9,4.2-4.2,4.2h0c-2.3,0-4.2-1.9-4.2-4.2V27.6c0-2.3,1.9-4.2,4.2-4.2Z"/>
  <path class="cls-1" d="m290.6,66.5l-5,5c-.7.7-1.7,1.1-2.8,1.1h-20c-1,0-2-.4-2.8-1.1l-8.1-8.1c-.7-.7-1.1-1.7-1.1-2.8v-25.2c0-1,.4-2,1.1-2.8l8.1-8.1c.7-.7,1.7-1.1,2.8-1.1h19.5c1,0,2,.4,2.8,1.1l5,5c1.5,1.5,1.5,4,0,5.5h0c-1.5,1.5-4,1.5-5.5,0l-2.9-2.9c-.7-.7-1.7-1.1-2.8-1.1h-12.3c-1,0-2,.4-2.8,1.1l-3.3,3.3c-.7.7-1.1,1.7-1.1,2.8v19.5c0,1,.4,2,1.1,2.8l3.3,3.3c.7.7,1.7,1.1,2.8,1.1h12.8c1,0,2-.4,2.8-1.1l2.9-2.9c1.5-1.5,4-1.5,5.5,0h0c1.5,1.6,1.5,4.1,0,5.6Z"/>
  <path class="cls-1" d="m341.8,33.3v36.4c0,1.6-1.3,2.9-2.9,2.9h-2c-1.6,0-2.8-1.2-2.9-2.8h0c-.1-2.5-3.2-3.7-5-1.9l-3.9,3.9c-.5.5-1.3.9-2.1.9h-15.7c-.8,0-1.5-.3-2.1-.9l-6.7-6.7c-.5-.5-.9-1.3-.9-2.1v-9.1c0-.8.3-1.5.9-2.1l5.7-5.7c.5-.5,1.2-.8,1.9-.8l24.3-1.7c1.5-.1,2.7-1.4,2.7-2.9v-4.3c0-.8-.3-1.5-.9-2.1l-2.7-2.7c-.5-.5-1.3-.9-2.1-.9h-15.2c-.8,0-1.5.3-2.1.9l-3.7,3.7c-1.1,1.1-3,1.1-4.1,0l-1.4-1.4c-1.1-1.1-1.1-3,0-4.1l5.6-5.6c.5-.5,1.3-.9,2.1-.9h23.1c.8,0,1.5.3,2.1.9l7,7c.7.6,1,1.3,1,2.1Zm-8.5,21.1v-.4c0-1.7-1.4-3-3.1-2.9l-19.9,1.4c-.7,0-1.4.3-1.8.8l-1.3,1.3c-.5.5-.9,1.3-.9,2.1v3.4c0,.8.3,1.5.9,2.1l2,2c.5.5,1.3.9,2.1.9h11.4c.8,0,1.5-.3,2.1-.9l7.8-7.8c.4-.4.7-1.2.7-2Z"/>
</svg>