<?xml version="1.0" encoding="UTF-8"?>
<svg id="Calque_2" data-name="Calque 2" xmlns="http://www.w3.org/2000/svg" viewBox="0 0 63.17 62.88">
  <defs>
    <style>
      .cls-1 {
        fill: none;
        stroke: #000;
        stroke-miterlimit: 10;
        stroke-width: 3px;
      }
    </style>
  </defs>
  <g id="Calque_2-2" data-name="Calque 2">
    <g>
      <line class="cls-1" x1="31.15" y1=".3" x2="31.15" y2="62.6"/>
      <line class="cls-1" x1="62.3" y1="31.45" y2="31.45"/>
      <line class="cls-1" x1="48.6" y1="5.65" x2="13.7" y2="57.25"/>
      <line class="cls-1" x1="56.95" y1="48.9" x2="5.35" y2="13.99"/>
      <line class="cls-1" x1="43.3" y1="2.45" x2="19.33" y2="59.95"/>
      <line class="cls-1" x1="59.87" y1="43.26" x2="2.43" y2="19.15"/>
      <line class="cls-1" x1="57.55" y1="13.71" x2="6.34" y2="49.18"/>
      <line class="cls-1" x1="48.39" y1="57.25" x2="14.23" y2="5.15"/>
      <line class="cls-1" x1="53.4" y1="9.27" x2="9.35" y2="53.32"/>
      <line class="cls-1" x1="62.3" y1="37.56" x2=".33" y2="25.65"/>
      <line class="cls-1" x1="53.13" y1="53.32" x2="9.08" y2="9.27"/>
      <line class="cls-1" x1="37.51" y1=".3" x2="25.04" y2="61.98"/>
      <line class="cls-1" x1="62.88" y1="25.11" x2=".61" y2="37.61"/>
      <line class="cls-1" x1="60.13" y1="19.88" x2="2.42" y2="43.34"/>
      <line class="cls-1" x1="25.53" y1=".6" x2="37.57" y2="62.6"/>
      <line class="cls-1" x1="19.73" y1="2.41" x2="43.33" y2="60.23"/>
    </g>
  </g>
</svg>