<?xml version="1.0" encoding="UTF-8"?>
<svg id="Calque_2" data-name="Calque 2" xmlns="http://www.w3.org/2000/svg" viewBox="0 0 88.74 88.54">
  <defs>
    <style>
      .cls-1 {
        fill: none;
        stroke: #000;
        stroke-miterlimit: 10;
        stroke-width: .55px;
      }
    </style>
  </defs>
  <g id="Calque_2-2" data-name="Calque 2">
    <g>
      <g>
        <line class="cls-1" x1="60.97" y1="29.38" x2="60.97" y2="47.17"/>
        <line class="cls-1" x1="69.86" y1="38.28" x2="52.08" y2="38.28"/>
        <line class="cls-1" x1="65.95" y1="30.91" x2="55.99" y2="45.64"/>
        <line class="cls-1" x1="68.34" y1="43.26" x2="53.61" y2="33.29"/>
        <line class="cls-1" x1="64.44" y1="30" x2="57.6" y2="46.41"/>
        <line class="cls-1" x1="69.17" y1="41.65" x2="52.77" y2="34.77"/>
        <line class="cls-1" x1="68.51" y1="33.21" x2="53.89" y2="43.34"/>
        <line class="cls-1" x1="65.89" y1="45.64" x2="56.14" y2="30.77"/>
        <line class="cls-1" x1="67.32" y1="31.95" x2="54.75" y2="44.52"/>
        <line class="cls-1" x1="69.86" y1="40.02" x2="52.17" y2="36.62"/>
        <line class="cls-1" x1="67.25" y1="44.52" x2="54.67" y2="31.95"/>
        <line class="cls-1" x1="62.79" y1="29.38" x2="59.23" y2="46.99"/>
        <line class="cls-1" x1="70.03" y1="36.47" x2="52.25" y2="40.03"/>
        <line class="cls-1" x1="69.24" y1="34.97" x2="52.77" y2="41.67"/>
        <line class="cls-1" x1="59.37" y1="29.47" x2="62.8" y2="47.17"/>
        <line class="cls-1" x1="57.71" y1="29.99" x2="64.45" y2="46.49"/>
      </g>
      <g>
        <line class="cls-1" x1="44.84" y1="35.97" x2="44.84" y2="53.75"/>
        <line class="cls-1" x1="53.73" y1="44.86" x2="35.95" y2="44.86"/>
        <line class="cls-1" x1="49.82" y1="37.49" x2="39.86" y2="52.22"/>
        <line class="cls-1" x1="52.21" y1="49.84" x2="37.48" y2="39.88"/>
        <line class="cls-1" x1="48.31" y1="36.58" x2="41.47" y2="53"/>
        <line class="cls-1" x1="53.04" y1="48.23" x2="36.64" y2="41.35"/>
        <line class="cls-1" x1="52.38" y1="39.8" x2="37.76" y2="49.92"/>
        <line class="cls-1" x1="49.76" y1="52.22" x2="40.01" y2="37.35"/>
        <line class="cls-1" x1="51.19" y1="38.53" x2="38.62" y2="51.1"/>
        <line class="cls-1" x1="53.73" y1="46.6" x2="36.04" y2="43.2"/>
        <line class="cls-1" x1="51.12" y1="51.1" x2="38.54" y2="38.53"/>
        <line class="cls-1" x1="46.66" y1="35.97" x2="43.1" y2="53.57"/>
        <line class="cls-1" x1="53.9" y1="43.05" x2="36.13" y2="46.62"/>
        <line class="cls-1" x1="53.11" y1="41.56" x2="36.64" y2="48.25"/>
        <line class="cls-1" x1="43.24" y1="36.05" x2="46.68" y2="53.75"/>
        <line class="cls-1" x1="41.58" y1="36.57" x2="48.32" y2="53.07"/>
      </g>
      <g>
        <line class="cls-1" x1="58.17" y1="47.02" x2="58.17" y2="64.8"/>
        <line class="cls-1" x1="67.06" y1="55.91" x2="49.28" y2="55.91"/>
        <line class="cls-1" x1="63.15" y1="48.55" x2="53.19" y2="63.28"/>
        <line class="cls-1" x1="65.53" y1="60.89" x2="50.8" y2="50.93"/>
        <line class="cls-1" x1="61.63" y1="47.64" x2="54.79" y2="64.05"/>
        <line class="cls-1" x1="66.37" y1="59.28" x2="49.97" y2="52.4"/>
        <line class="cls-1" x1="65.7" y1="50.85" x2="51.09" y2="60.98"/>
        <line class="cls-1" x1="63.09" y1="63.28" x2="53.34" y2="48.41"/>
        <line class="cls-1" x1="64.52" y1="49.58" x2="51.95" y2="62.16"/>
        <line class="cls-1" x1="67.06" y1="57.66" x2="49.37" y2="54.26"/>
        <line class="cls-1" x1="64.44" y1="62.16" x2="51.87" y2="49.58"/>
        <line class="cls-1" x1="59.98" y1="47.02" x2="56.42" y2="64.63"/>
        <line class="cls-1" x1="67.22" y1="54.1" x2="49.45" y2="57.67"/>
        <line class="cls-1" x1="66.44" y1="52.61" x2="49.97" y2="59.31"/>
        <line class="cls-1" x1="56.56" y1="47.11" x2="60" y2="64.8"/>
        <line class="cls-1" x1="54.91" y1="47.63" x2="61.64" y2="64.13"/>
      </g>
      <g>
        <line class="cls-1" x1="41.52" y1="53.14" x2="41.52" y2="70.92"/>
        <line class="cls-1" x1="50.41" y1="62.03" x2="32.63" y2="62.03"/>
        <line class="cls-1" x1="46.5" y1="54.66" x2="36.53" y2="69.39"/>
        <line class="cls-1" x1="48.88" y1="67.01" x2="34.15" y2="57.05"/>
        <line class="cls-1" x1="44.98" y1="53.75" x2="38.14" y2="70.16"/>
        <line class="cls-1" x1="49.71" y1="65.4" x2="33.32" y2="58.52"/>
        <line class="cls-1" x1="49.05" y1="56.97" x2="34.43" y2="67.09"/>
        <line class="cls-1" x1="46.44" y1="69.39" x2="36.69" y2="54.52"/>
        <line class="cls-1" x1="47.87" y1="55.7" x2="35.29" y2="68.27"/>
        <line class="cls-1" x1="50.41" y1="63.77" x2="32.72" y2="60.37"/>
        <line class="cls-1" x1="47.79" y1="68.27" x2="35.22" y2="55.7"/>
        <line class="cls-1" x1="43.33" y1="53.14" x2="39.77" y2="70.74"/>
        <line class="cls-1" x1="50.57" y1="60.22" x2="32.8" y2="63.79"/>
        <line class="cls-1" x1="49.79" y1="58.73" x2="33.32" y2="65.42"/>
        <line class="cls-1" x1="39.91" y1="53.22" x2="43.35" y2="70.92"/>
        <line class="cls-1" x1="38.26" y1="53.74" x2="44.99" y2="70.24"/>
      </g>
      <g>
        <line class="cls-1" x1="30.7" y1="24.94" x2="30.7" y2="42.72"/>
        <line class="cls-1" x1="39.59" y1="33.83" x2="21.81" y2="33.83"/>
        <line class="cls-1" x1="35.68" y1="26.47" x2="25.72" y2="41.2"/>
        <line class="cls-1" x1="38.06" y1="38.81" x2="23.33" y2="28.85"/>
        <line class="cls-1" x1="34.17" y1="25.55" x2="27.33" y2="41.97"/>
        <line class="cls-1" x1="38.9" y1="37.2" x2="22.5" y2="30.32"/>
        <line class="cls-1" x1="38.23" y1="28.77" x2="23.62" y2="38.89"/>
        <line class="cls-1" x1="35.62" y1="41.2" x2="25.87" y2="26.33"/>
        <line class="cls-1" x1="37.05" y1="27.5" x2="24.48" y2="40.08"/>
        <line class="cls-1" x1="39.59" y1="35.58" x2="21.9" y2="32.18"/>
        <line class="cls-1" x1="36.97" y1="40.08" x2="24.4" y2="27.5"/>
        <line class="cls-1" x1="32.51" y1="24.94" x2="28.95" y2="42.55"/>
        <line class="cls-1" x1="39.75" y1="32.02" x2="21.98" y2="35.59"/>
        <line class="cls-1" x1="38.97" y1="30.53" x2="22.5" y2="37.22"/>
        <line class="cls-1" x1="29.09" y1="25.03" x2="32.53" y2="42.72"/>
        <line class="cls-1" x1="27.44" y1="25.54" x2="34.18" y2="42.05"/>
      </g>
      <g>
        <line class="cls-1" x1="47" y1="18.34" x2="47" y2="36.12"/>
        <line class="cls-1" x1="55.89" y1="27.23" x2="38.11" y2="27.23"/>
        <line class="cls-1" x1="51.98" y1="19.87" x2="42.02" y2="34.6"/>
        <line class="cls-1" x1="54.36" y1="32.21" x2="39.63" y2="22.25"/>
        <line class="cls-1" x1="50.46" y1="18.96" x2="43.62" y2="35.37"/>
        <line class="cls-1" x1="55.19" y1="30.6" x2="38.8" y2="23.72"/>
        <line class="cls-1" x1="54.53" y1="22.17" x2="39.91" y2="32.29"/>
        <line class="cls-1" x1="51.92" y1="34.6" x2="42.17" y2="19.73"/>
        <line class="cls-1" x1="53.35" y1="20.9" x2="40.78" y2="33.48"/>
        <line class="cls-1" x1="55.89" y1="28.98" x2="38.2" y2="25.58"/>
        <line class="cls-1" x1="53.27" y1="33.48" x2="40.7" y2="20.9"/>
        <line class="cls-1" x1="48.81" y1="18.34" x2="45.25" y2="35.95"/>
        <line class="cls-1" x1="56.05" y1="25.42" x2="38.28" y2="28.99"/>
        <line class="cls-1" x1="55.27" y1="23.93" x2="38.8" y2="30.63"/>
        <line class="cls-1" x1="45.39" y1="18.43" x2="48.83" y2="36.12"/>
        <line class="cls-1" x1="43.74" y1="18.94" x2="50.47" y2="35.45"/>
      </g>
      <g>
        <line class="cls-1" x1="27.31" y1="42.44" x2="27.31" y2="60.23"/>
        <line class="cls-1" x1="36.2" y1="51.33" x2="18.42" y2="51.33"/>
        <line class="cls-1" x1="32.29" y1="43.97" x2="22.33" y2="58.7"/>
        <line class="cls-1" x1="34.67" y1="56.32" x2="19.94" y2="46.35"/>
        <line class="cls-1" x1="30.78" y1="43.06" x2="23.94" y2="59.47"/>
        <line class="cls-1" x1="35.51" y1="54.71" x2="19.11" y2="47.82"/>
        <line class="cls-1" x1="34.84" y1="46.27" x2="20.23" y2="56.4"/>
        <line class="cls-1" x1="32.23" y1="58.7" x2="22.48" y2="43.83"/>
        <line class="cls-1" x1="33.66" y1="45.01" x2="21.09" y2="57.58"/>
        <line class="cls-1" x1="36.2" y1="53.08" x2="18.51" y2="49.68"/>
        <line class="cls-1" x1="33.58" y1="57.58" x2="21.01" y2="45.01"/>
        <line class="cls-1" x1="29.12" y1="42.44" x2="25.56" y2="60.05"/>
        <line class="cls-1" x1="36.36" y1="49.53" x2="18.59" y2="53.09"/>
        <line class="cls-1" x1="35.58" y1="48.03" x2="19.11" y2="54.73"/>
        <line class="cls-1" x1="25.7" y1="42.53" x2="29.14" y2="60.23"/>
        <line class="cls-1" x1="24.05" y1="43.05" x2="30.79" y2="59.55"/>
      </g>
      <g>
        <line class="cls-1" x1="61.85" y1="65.86" x2="61.85" y2="83.65"/>
        <line class="cls-1" x1="70.74" y1="74.75" x2="52.96" y2="74.75"/>
        <line class="cls-1" x1="66.83" y1="67.39" x2="56.87" y2="82.12"/>
        <line class="cls-1" x1="69.22" y1="79.74" x2="54.49" y2="69.77"/>
        <line class="cls-1" x1="65.32" y1="66.48" x2="58.48" y2="82.89"/>
        <line class="cls-1" x1="70.05" y1="78.13" x2="53.65" y2="71.24"/>
        <line class="cls-1" x1="69.39" y1="69.69" x2="54.77" y2="79.82"/>
        <line class="cls-1" x1="66.77" y1="82.12" x2="57.02" y2="67.25"/>
        <line class="cls-1" x1="68.2" y1="68.43" x2="55.63" y2="81"/>
        <line class="cls-1" x1="70.74" y1="76.5" x2="53.05" y2="73.1"/>
        <line class="cls-1" x1="68.13" y1="81" x2="55.55" y2="68.43"/>
        <line class="cls-1" x1="63.67" y1="65.86" x2="60.11" y2="83.47"/>
        <line class="cls-1" x1="70.91" y1="72.95" x2="53.14" y2="76.51"/>
        <line class="cls-1" x1="70.12" y1="71.45" x2="53.65" y2="78.15"/>
        <line class="cls-1" x1="60.25" y1="65.95" x2="63.69" y2="83.65"/>
        <line class="cls-1" x1="58.59" y1="66.47" x2="65.33" y2="82.97"/>
      </g>
      <g>
        <line class="cls-1" x1="74.38" y1="53.27" x2="74.38" y2="71.05"/>
        <line class="cls-1" x1="83.28" y1="62.16" x2="65.49" y2="62.16"/>
        <line class="cls-1" x1="79.37" y1="54.8" x2="69.4" y2="69.53"/>
        <line class="cls-1" x1="81.75" y1="67.14" x2="67.02" y2="57.18"/>
        <line class="cls-1" x1="77.85" y1="53.89" x2="71.01" y2="70.3"/>
        <line class="cls-1" x1="82.58" y1="65.53" x2="66.19" y2="58.65"/>
        <line class="cls-1" x1="81.92" y1="57.1" x2="67.3" y2="67.22"/>
        <line class="cls-1" x1="79.31" y1="69.53" x2="69.56" y2="54.66"/>
        <line class="cls-1" x1="80.74" y1="55.83" x2="68.16" y2="68.41"/>
        <line class="cls-1" x1="83.28" y1="63.91" x2="65.59" y2="60.51"/>
        <line class="cls-1" x1="80.66" y1="68.41" x2="68.09" y2="55.83"/>
        <line class="cls-1" x1="76.2" y1="53.27" x2="72.64" y2="70.88"/>
        <line class="cls-1" x1="83.44" y1="60.35" x2="65.67" y2="63.92"/>
        <line class="cls-1" x1="82.66" y1="58.86" x2="66.18" y2="65.56"/>
        <line class="cls-1" x1="72.78" y1="53.36" x2="76.22" y2="71.05"/>
        <line class="cls-1" x1="71.13" y1="53.87" x2="77.86" y2="70.38"/>
      </g>
      <g>
        <line class="cls-1" x1="79.63" y1="35.88" x2="79.63" y2="53.66"/>
        <line class="cls-1" x1="88.52" y1="44.77" x2="70.74" y2="44.77"/>
        <line class="cls-1" x1="84.61" y1="37.41" x2="74.65" y2="52.13"/>
        <line class="cls-1" x1="87" y1="49.75" x2="72.27" y2="39.79"/>
        <line class="cls-1" x1="83.1" y1="36.49" x2="76.26" y2="52.91"/>
        <line class="cls-1" x1="87.83" y1="48.14" x2="71.44" y2="41.26"/>
        <line class="cls-1" x1="87.17" y1="39.71" x2="72.55" y2="49.83"/>
        <line class="cls-1" x1="84.56" y1="52.14" x2="74.81" y2="37.27"/>
        <line class="cls-1" x1="85.99" y1="38.44" x2="73.41" y2="51.01"/>
        <line class="cls-1" x1="88.52" y1="46.52" x2="70.84" y2="43.12"/>
        <line class="cls-1" x1="85.91" y1="51.01" x2="73.33" y2="38.44"/>
        <line class="cls-1" x1="81.45" y1="35.88" x2="77.89" y2="53.48"/>
        <line class="cls-1" x1="88.69" y1="42.96" x2="70.92" y2="46.53"/>
        <line class="cls-1" x1="87.91" y1="41.47" x2="71.43" y2="48.16"/>
        <line class="cls-1" x1="78.03" y1="35.96" x2="81.47" y2="53.66"/>
        <line class="cls-1" x1="76.37" y1="36.48" x2="83.11" y2="52.99"/>
      </g>
      <g>
        <line class="cls-1" x1="75.17" y1="18.25" x2="75.17" y2="36.04"/>
        <line class="cls-1" x1="84.06" y1="27.14" x2="66.28" y2="27.14"/>
        <line class="cls-1" x1="80.15" y1="19.78" x2="70.19" y2="34.51"/>
        <line class="cls-1" x1="82.53" y1="32.13" x2="67.8" y2="22.16"/>
        <line class="cls-1" x1="78.63" y1="18.87" x2="71.79" y2="35.28"/>
        <line class="cls-1" x1="83.37" y1="30.52" x2="66.97" y2="23.63"/>
        <line class="cls-1" x1="82.7" y1="22.08" x2="68.09" y2="32.21"/>
        <line class="cls-1" x1="80.09" y1="34.51" x2="70.34" y2="19.64"/>
        <line class="cls-1" x1="81.52" y1="20.82" x2="68.95" y2="33.39"/>
        <line class="cls-1" x1="84.06" y1="28.89" x2="66.37" y2="25.49"/>
        <line class="cls-1" x1="81.44" y1="33.39" x2="68.87" y2="20.82"/>
        <line class="cls-1" x1="76.98" y1="18.25" x2="73.42" y2="35.86"/>
        <line class="cls-1" x1="84.22" y1="25.34" x2="66.45" y2="28.9"/>
        <line class="cls-1" x1="83.44" y1="23.84" x2="66.97" y2="30.54"/>
        <line class="cls-1" x1="73.56" y1="18.34" x2="77" y2="36.04"/>
        <line class="cls-1" x1="71.91" y1="18.86" x2="78.64" y2="35.36"/>
      </g>
      <g>
        <line class="cls-1" x1="61.77" y1="5.5" x2="61.77" y2="23.28"/>
        <line class="cls-1" x1="70.66" y1="14.39" x2="52.88" y2="14.39"/>
        <line class="cls-1" x1="66.75" y1="7.03" x2="56.79" y2="21.75"/>
        <line class="cls-1" x1="69.13" y1="19.37" x2="54.4" y2="9.41"/>
        <line class="cls-1" x1="65.24" y1="6.11" x2="58.4" y2="22.53"/>
        <line class="cls-1" x1="69.97" y1="17.76" x2="53.57" y2="10.88"/>
        <line class="cls-1" x1="69.3" y1="9.33" x2="54.69" y2="19.45"/>
        <line class="cls-1" x1="66.69" y1="21.75" x2="56.94" y2="6.88"/>
        <line class="cls-1" x1="68.12" y1="8.06" x2="55.55" y2="20.63"/>
        <line class="cls-1" x1="70.66" y1="16.13" x2="52.97" y2="12.74"/>
        <line class="cls-1" x1="68.04" y1="20.63" x2="55.47" y2="8.06"/>
        <line class="cls-1" x1="63.59" y1="5.5" x2="60.02" y2="23.1"/>
        <line class="cls-1" x1="70.83" y1="12.58" x2="53.05" y2="16.15"/>
        <line class="cls-1" x1="70.04" y1="11.09" x2="53.57" y2="17.78"/>
        <line class="cls-1" x1="60.16" y1="5.58" x2="63.6" y2="23.28"/>
        <line class="cls-1" x1="58.51" y1="6.1" x2="65.25" y2="22.6"/>
      </g>
      <g>
        <line class="cls-1" x1="44.99" y1=".05" x2="44.99" y2="17.84"/>
        <line class="cls-1" x1="53.88" y1="8.95" x2="36.1" y2="8.95"/>
        <line class="cls-1" x1="49.97" y1="1.58" x2="40.01" y2="16.31"/>
        <line class="cls-1" x1="52.35" y1="13.93" x2="37.62" y2="3.96"/>
        <line class="cls-1" x1="48.45" y1=".67" x2="41.61" y2="17.08"/>
        <line class="cls-1" x1="53.18" y1="12.32" x2="36.79" y2="5.44"/>
        <line class="cls-1" x1="52.52" y1="3.88" x2="37.9" y2="14.01"/>
        <line class="cls-1" x1="49.91" y1="16.31" x2="40.16" y2="1.44"/>
        <line class="cls-1" x1="51.34" y1="2.62" x2="38.76" y2="15.19"/>
        <line class="cls-1" x1="53.88" y1="10.69" x2="36.19" y2="7.29"/>
        <line class="cls-1" x1="51.26" y1="15.19" x2="38.69" y2="2.62"/>
        <line class="cls-1" x1="46.8" y1=".05" x2="43.24" y2="17.66"/>
        <line class="cls-1" x1="54.04" y1="7.14" x2="36.27" y2="10.7"/>
        <line class="cls-1" x1="53.26" y1="5.64" x2="36.79" y2="12.34"/>
        <line class="cls-1" x1="43.38" y1=".14" x2="46.82" y2="17.84"/>
        <line class="cls-1" x1="41.73" y1=".66" x2="48.46" y2="17.16"/>
      </g>
      <g>
        <line class="cls-1" x1="44.75" y1="70.7" x2="44.75" y2="88.49"/>
        <line class="cls-1" x1="53.64" y1="79.6" x2="35.86" y2="79.6"/>
        <line class="cls-1" x1="49.73" y1="72.23" x2="39.77" y2="86.96"/>
        <line class="cls-1" x1="52.11" y1="84.58" x2="37.38" y2="74.61"/>
        <line class="cls-1" x1="48.21" y1="71.32" x2="41.37" y2="87.73"/>
        <line class="cls-1" x1="52.95" y1="82.97" x2="36.55" y2="76.09"/>
        <line class="cls-1" x1="52.28" y1="74.53" x2="37.67" y2="84.66"/>
        <line class="cls-1" x1="49.67" y1="86.96" x2="39.92" y2="72.09"/>
        <line class="cls-1" x1="51.1" y1="73.27" x2="38.53" y2="85.84"/>
        <line class="cls-1" x1="53.64" y1="81.34" x2="35.95" y2="77.94"/>
        <line class="cls-1" x1="51.02" y1="85.84" x2="38.45" y2="73.27"/>
        <line class="cls-1" x1="46.56" y1="70.7" x2="43" y2="88.31"/>
        <line class="cls-1" x1="53.8" y1="77.79" x2="36.03" y2="81.36"/>
        <line class="cls-1" x1="53.02" y1="76.29" x2="36.55" y2="82.99"/>
        <line class="cls-1" x1="43.14" y1="70.79" x2="46.58" y2="88.49"/>
        <line class="cls-1" x1="41.49" y1="71.31" x2="48.22" y2="87.81"/>
      </g>
      <g>
        <line class="cls-1" x1="26.8" y1="65.91" x2="26.8" y2="83.69"/>
        <line class="cls-1" x1="35.69" y1="74.8" x2="17.91" y2="74.8"/>
        <line class="cls-1" x1="31.78" y1="67.44" x2="21.82" y2="82.16"/>
        <line class="cls-1" x1="34.17" y1="79.78" x2="19.44" y2="69.82"/>
        <line class="cls-1" x1="30.27" y1="66.52" x2="23.43" y2="82.94"/>
        <line class="cls-1" x1="35" y1="78.17" x2="18.6" y2="71.29"/>
        <line class="cls-1" x1="34.34" y1="69.74" x2="19.72" y2="79.86"/>
        <line class="cls-1" x1="31.72" y1="82.17" x2="21.97" y2="67.3"/>
        <line class="cls-1" x1="33.15" y1="68.47" x2="20.58" y2="81.04"/>
        <line class="cls-1" x1="35.69" y1="76.55" x2="18" y2="73.15"/>
        <line class="cls-1" x1="33.08" y1="81.04" x2="20.5" y2="68.47"/>
        <line class="cls-1" x1="28.62" y1="65.91" x2="25.06" y2="83.52"/>
        <line class="cls-1" x1="35.86" y1="72.99" x2="18.08" y2="76.56"/>
        <line class="cls-1" x1="35.07" y1="71.5" x2="18.6" y2="78.19"/>
        <line class="cls-1" x1="25.2" y1="66" x2="28.63" y2="83.69"/>
        <line class="cls-1" x1="23.54" y1="66.51" x2="30.28" y2="83.02"/>
      </g>
      <g>
        <line class="cls-1" x1="13.81" y1="53.32" x2="13.81" y2="71.1"/>
        <line class="cls-1" x1="22.71" y1="62.21" x2="4.92" y2="62.21"/>
        <line class="cls-1" x1="18.8" y1="54.84" x2="8.83" y2="69.57"/>
        <line class="cls-1" x1="21.18" y1="67.19" x2="6.45" y2="57.23"/>
        <line class="cls-1" x1="17.28" y1="53.93" x2="10.44" y2="70.34"/>
        <line class="cls-1" x1="22.01" y1="65.58" x2="5.62" y2="58.7"/>
        <line class="cls-1" x1="21.35" y1="57.15" x2="6.73" y2="67.27"/>
        <line class="cls-1" x1="18.74" y1="69.57" x2="8.99" y2="54.7"/>
        <line class="cls-1" x1="20.17" y1="55.88" x2="7.59" y2="68.45"/>
        <line class="cls-1" x1="22.71" y1="63.95" x2="5.02" y2="60.55"/>
        <line class="cls-1" x1="20.09" y1="68.45" x2="7.52" y2="55.88"/>
        <line class="cls-1" x1="15.63" y1="53.32" x2="12.07" y2="70.92"/>
        <line class="cls-1" x1="22.87" y1="60.4" x2="5.1" y2="63.97"/>
        <line class="cls-1" x1="22.09" y1="58.91" x2="5.61" y2="65.6"/>
        <line class="cls-1" x1="12.21" y1="53.4" x2="15.65" y2="71.1"/>
        <line class="cls-1" x1="10.56" y1="53.92" x2="17.29" y2="70.42"/>
      </g>
      <g>
        <line class="cls-1" x1="26.89" y1="5.68" x2="26.89" y2="23.46"/>
        <line class="cls-1" x1="35.78" y1="14.57" x2="18" y2="14.57"/>
        <line class="cls-1" x1="31.87" y1="7.21" x2="21.91" y2="21.93"/>
        <line class="cls-1" x1="34.25" y1="19.55" x2="19.52" y2="9.59"/>
        <line class="cls-1" x1="30.36" y1="6.29" x2="23.52" y2="22.71"/>
        <line class="cls-1" x1="35.09" y1="17.94" x2="18.69" y2="11.06"/>
        <line class="cls-1" x1="34.42" y1="9.51" x2="19.81" y2="19.63"/>
        <line class="cls-1" x1="31.81" y1="21.94" x2="22.06" y2="7.06"/>
        <line class="cls-1" x1="33.24" y1="8.24" x2="20.67" y2="20.81"/>
        <line class="cls-1" x1="35.78" y1="16.31" x2="18.09" y2="12.92"/>
        <line class="cls-1" x1="33.16" y1="20.81" x2="20.59" y2="8.24"/>
        <line class="cls-1" x1="28.7" y1="5.68" x2="25.14" y2="23.28"/>
        <line class="cls-1" x1="35.94" y1="12.76" x2="18.17" y2="16.33"/>
        <line class="cls-1" x1="35.16" y1="11.27" x2="18.69" y2="17.96"/>
        <line class="cls-1" x1="25.28" y1="5.76" x2="28.72" y2="23.46"/>
        <line class="cls-1" x1="23.63" y1="6.28" x2="30.36" y2="22.79"/>
      </g>
      <g>
        <line class="cls-1" x1="12.75" y1="18.17" x2="12.75" y2="35.95"/>
        <line class="cls-1" x1="21.64" y1="27.06" x2="3.86" y2="27.06"/>
        <line class="cls-1" x1="17.73" y1="19.69" x2="7.77" y2="34.42"/>
        <line class="cls-1" x1="20.12" y1="32.04" x2="5.39" y2="22.08"/>
        <line class="cls-1" x1="16.22" y1="18.78" x2="9.38" y2="35.19"/>
        <line class="cls-1" x1="20.95" y1="30.43" x2="4.55" y2="23.55"/>
        <line class="cls-1" x1="20.29" y1="21.99" x2="5.67" y2="32.12"/>
        <line class="cls-1" x1="17.67" y1="34.42" x2="7.92" y2="19.55"/>
        <line class="cls-1" x1="19.1" y1="20.73" x2="6.53" y2="33.3"/>
        <line class="cls-1" x1="21.64" y1="28.8" x2="3.95" y2="25.4"/>
        <line class="cls-1" x1="19.03" y1="33.3" x2="6.45" y2="20.73"/>
        <line class="cls-1" x1="14.57" y1="18.17" x2="11.01" y2="35.77"/>
        <line class="cls-1" x1="21.81" y1="25.25" x2="4.04" y2="28.82"/>
        <line class="cls-1" x1="21.02" y1="23.75" x2="4.55" y2="30.45"/>
        <line class="cls-1" x1="11.15" y1="18.25" x2="14.59" y2="35.95"/>
        <line class="cls-1" x1="9.49" y1="18.77" x2="16.23" y2="35.27"/>
      </g>
      <g>
        <line class="cls-1" x1="8.89" y1="36.01" x2="8.89" y2="53.79"/>
        <line class="cls-1" x1="17.78" y1="44.9" y2="44.9"/>
        <line class="cls-1" x1="13.87" y1="37.54" x2="3.91" y2="52.27"/>
        <line class="cls-1" x1="16.26" y1="49.89" x2="1.53" y2="39.92"/>
        <line class="cls-1" x1="12.36" y1="36.63" x2="5.52" y2="53.04"/>
        <line class="cls-1" x1="17.09" y1="48.27" x2=".69" y2="41.39"/>
        <line class="cls-1" x1="16.43" y1="39.84" x2="1.81" y2="49.97"/>
        <line class="cls-1" x1="13.81" y1="52.27" x2="4.06" y2="37.4"/>
        <line class="cls-1" x1="15.24" y1="38.58" x2="2.67" y2="51.15"/>
        <line class="cls-1" x1="17.78" y1="46.65" x2=".09" y2="43.25"/>
        <line class="cls-1" x1="15.17" y1="51.15" x2="2.59" y2="38.58"/>
        <line class="cls-1" x1="10.71" y1="36.01" x2="7.15" y2="53.62"/>
        <line class="cls-1" x1="17.95" y1="43.1" x2=".17" y2="46.66"/>
        <line class="cls-1" x1="17.16" y1="41.6" x2=".69" y2="48.3"/>
        <line class="cls-1" x1="7.29" y1="36.1" x2="10.72" y2="53.79"/>
        <line class="cls-1" x1="5.63" y1="36.62" x2="12.37" y2="53.12"/>
      </g>
    </g>
  </g>
</svg>