<?xml version="1.0" encoding="UTF-8"?>
<svg id="Calque_2" data-name="Calque 2" xmlns="http://www.w3.org/2000/svg" viewBox="0 0 58.17 58.03">
  <g id="Calque_2-2" data-name="Calque 2">
    <path d="m9.71,10.1c-3.31,0-6,2.69-6,6s2.69,6,6,6,6-2.69,6-6-2.69-6-6-6Zm0,8.61c-1.44,0-2.61-1.17-2.61-2.61s1.17-2.61,2.61-2.61,2.61,1.17,2.61,2.61-1.17,2.61-2.61,2.61Z"/>
    <path d="m18.79,2.28c-3.31,0-6,2.69-6,6s2.69,6,6,6,6-2.69,6-6-2.69-6-6-6Zm0,8.61c-1.44,0-2.61-1.17-2.61-2.61s1.17-2.61,2.61-2.61,2.61,1.17,2.61,2.61-1.17,2.61-2.61,2.61Z"/>
    <path d="m6,21.31c-3.31,0-6,2.69-6,6s2.69,6,6,6,6-2.69,6-6-2.69-6-6-6Zm0,8.61c-1.44,0-2.61-1.17-2.61-2.61s1.17-2.61,2.61-2.61,2.61,1.17,2.61,2.61-1.17,2.61-2.61,2.61Z"/>
    <path d="m30.49,0c-3.31,0-6,2.69-6,6s2.69,6,6,6,6-2.69,6-6-2.69-6-6-6Zm0,8.61c-1.44,0-2.61-1.17-2.61-2.61s1.17-2.61,2.61-2.61,2.61,1.17,2.61,2.61-1.17,2.61-2.61,2.61Z"/>
    <path d="m41.78,3.72c-3.31,0-6,2.69-6,6s2.69,6,6,6,6-2.69,6-6-2.69-6-6-6Zm0,8.61c-1.44,0-2.61-1.17-2.61-2.61s1.17-2.61,2.61-2.61,2.61,1.17,2.61,2.61-1.17,2.61-2.61,2.61Z"/>
    <path d="m48.59,47.75c3.31-.03,5.98-2.74,5.95-6.05s-2.74-5.98-6.05-5.95-5.98,2.74-5.95,6.05,2.74,5.98,6.05,5.95Zm-.07-8.61c1.44-.01,2.62,1.15,2.63,2.59s-1.15,2.62-2.59,2.63-2.62-1.15-2.63-2.59,1.15-2.62,2.59-2.63Z"/>
    <path d="m39.58,55.65c3.31-.03,5.98-2.74,5.95-6.05s-2.74-5.98-6.05-5.95-5.98,2.74-5.95,6.05,2.74,5.98,6.05,5.95Zm-.07-8.61c1.44-.01,2.62,1.15,2.63,2.59s-1.15,2.62-2.59,2.63-2.62-1.15-2.63-2.59,1.15-2.62,2.59-2.63Z"/>
    <path d="m52.21,36.52c3.31-.03,5.98-2.74,5.95-6.05s-2.74-5.98-6.05-5.95-5.98,2.74-5.95,6.05,2.74,5.98,6.05,5.95Zm-.07-8.61c1.44-.01,2.62,1.15,2.63,2.59s-1.15,2.62-2.59,2.63-2.62-1.15-2.63-2.59,1.15-2.62,2.59-2.63Z"/>
    <path d="m27.9,58.03c3.31-.03,5.98-2.74,5.95-6.05s-2.74-5.98-6.05-5.95-5.98,2.74-5.95,6.05,2.74,5.98,6.05,5.95Zm-.07-8.61c1.44-.01,2.62,1.15,2.63,2.59s-1.15,2.62-2.59,2.63-2.62-1.15-2.63-2.59,1.15-2.62,2.59-2.63Z"/>
    <path d="m16.2,54.4c3.52-.03,6.36-2.91,6.33-6.43s-2.91-6.36-6.43-6.33-6.36,2.91-6.33,6.43,2.91,6.36,6.43,6.33Zm-.08-9.16c1.53-.01,2.78,1.22,2.8,2.75.01,1.53-1.22,2.78-2.75,2.8s-2.78-1.22-2.8-2.75,1.22-2.78,2.75-2.8Z"/>
    <path d="m8.01,33.14c-3.31,0-6,2.69-6,6s2.69,6,6,6,6-2.69,6-6-2.69-6-6-6Zm0,8.61c-1.44,0-2.61-1.17-2.61-2.61s1.17-2.61,2.61-2.61,2.61,1.17,2.61,2.61-1.17,2.61-2.61,2.61Z"/>
    <path d="m49.78,12.35c-3.41,0-6.18,2.77-6.18,6.18s2.77,6.18,6.18,6.18,6.18-2.77,6.18-6.18-2.77-6.18-6.18-6.18Zm0,8.87c-1.48,0-2.69-1.2-2.69-2.69s1.2-2.69,2.69-2.69,2.69,1.2,2.69,2.69-1.2,2.69-2.69,2.69Z"/>
    <path d="m29.77,11.25c-3.31,0-6,2.69-6,6s2.69,6,6,6,6-2.69,6-6-2.69-6-6-6Zm0,8.61c-1.44,0-2.61-1.17-2.61-2.61s1.17-2.61,2.61-2.61,2.61,1.17,2.61,2.61-1.17,2.61-2.61,2.61Z"/>
    <path d="m19.38,16.1c-3.31,0-6,2.69-6,6s2.69,6,6,6,6-2.69,6-6-2.69-6-6-6Zm0,8.61c-1.44,0-2.61-1.17-2.61-2.61s1.17-2.61,2.61-2.61,2.61,1.17,2.61,2.61-1.17,2.61-2.61,2.61Z"/>
    <path d="m18.62,27.91c-3.31,0-6,2.69-6,6s2.69,6,6,6,6-2.69,6-6-2.69-6-6-6Zm0,8.61c-1.44,0-2.61-1.17-2.61-2.61s1.17-2.61,2.61-2.61,2.61,1.17,2.61,2.61-1.17,2.61-2.61,2.61Z"/>
    <path d="m28.25,46.31c3.31,0,6.01-2.68,6.01-5.99s-2.68-6.01-5.99-6.01c-3.31,0-6.01,2.68-6.01,5.99,0,3.31,2.68,6.01,5.99,6.01Zm.02-8.61c1.44,0,2.61,1.17,2.6,2.61s-1.17,2.61-2.61,2.6-2.61-1.17-2.6-2.61,1.17-2.61,2.61-2.6Z"/>
    <path d="m38.65,41.48c3.31,0,6.01-2.68,6.01-5.99,0-3.31-2.68-6.01-5.99-6.01s-6.01,2.68-6.01,5.99c0,3.31,2.68,6.01,5.99,6.01Zm.02-8.61c1.44,0,2.61,1.17,2.6,2.61s-1.17,2.61-2.61,2.6-2.61-1.17-2.6-2.61,1.17-2.61,2.61-2.6Z"/>
    <path d="m39.84,29.67c3.31,0,6.01-2.68,6.01-5.99s-2.68-6.01-5.99-6.01c-3.31,0-6.01,2.68-6.01,5.99,0,3.31,2.68,6.01,5.99,6.01Zm.02-8.61c1.44,0,2.61,1.17,2.6,2.61s-1.17,2.61-2.61,2.6-2.61-1.17-2.6-2.61,1.17-2.61,2.61-2.6Z"/>
    <path d="m29.11,34.97c3.31,0,6.01-2.68,6.01-5.99,0-3.31-2.68-6.01-5.99-6.01s-6.01,2.68-6.01,5.99c0,3.31,2.68,6.01,5.99,6.01Zm.02-8.61c1.44,0,2.61,1.17,2.6,2.61s-1.17,2.61-2.61,2.6-2.61-1.17-2.6-2.61,1.17-2.61,2.61-2.6Z"/>
  </g>
</svg>