<?xml version="1.0" encoding="UTF-8"?>
<svg id="Calque_2" data-name="Calque 2" xmlns="http://www.w3.org/2000/svg" viewBox="0 0 105.11 104.12">
  <g id="Calque_2-2" data-name="Calque 2">
    <g>
      <rect x="50.97" y="32.65" width="3.88" height="38.85"/>
      <rect x="50.97" y="32.65" width="3.88" height="38.85" transform="translate(-14.85 21.75) rotate(-20.44)"/>
      <rect x="50.97" y="32.65" width="3.88" height="38.85" transform="translate(-21.32 52.67) rotate(-45)"/>
      <rect x="50.97" y="32.65" width="3.88" height="38.85" transform="translate(-15.63 80.59) rotate(-67.13)"/>
      <rect x="50.97" y="32.65" width="3.88" height="38.85" transform="translate(102.76 -2.95) rotate(87.63)"/>
      <rect x="50.97" y="32.65" width="3.88" height="38.85" transform="translate(80.41 -16.89) rotate(67.19)"/>
      <rect x="50.97" y="32.65" width="3.88" height="38.85" transform="translate(49.25 -22.08) rotate(42.63)"/>
      <rect x="50.97" y="32.65" width="3.88" height="38.85" transform="translate(21.59 -15.23) rotate(20.5)"/>
      <rect x="45.86" y="17.82" width="3.88" height="15.44" transform="translate(-3.78 8.9) rotate(-10.23)"/>
      <rect x="35.64" y="22.09" width="3.88" height="15.63" transform="translate(-10.44 30.27) rotate(-38.95)"/>
      <rect x="28.63" y="29.83" width="3.88" height="15.29" transform="translate(-17.53 42.54) rotate(-56.81)"/>
      <rect x="24.69" y="39.16" width="3.88" height="15.64" transform="translate(-24.58 64.13) rotate(-78.97)"/>
      <rect x="24.56" y="49.89" width="3.88" height="15.38" transform="translate(-25.45 93.89) rotate(-100.23)"/>
      <rect x="56.46" y="70.97" width="3.88" height="15.29" transform="translate(131.2 144.12) rotate(168.6)"/>
      <rect x="66" y="66.92" width="3.88" height="15.64" transform="translate(165.87 99.46) rotate(146.43)"/>
      <rect x="73.63" y="59.7" width="3.88" height="15.38" transform="translate(174.19 44.43) rotate(125.17)"/>
      <rect x="35.83" y="66.81" width="3.88" height="15.44" transform="translate(21.7 156.52) rotate(-142.04)"/>
      <rect x="45.97" y="71.17" width="3.88" height="15.63" transform="translate(83.77 164.11) rotate(-171.6)"/>
      <rect x="73.68" y="29.71" width="3.88" height="15.44" transform="translate(73.15 -46.91) rotate(61.99)"/>
      <rect x="66.4" y="21.22" width="3.88" height="15.63" transform="translate(27.13 -32.73) rotate(33.27)"/>
      <rect x="77.77" y="49.49" width="3.88" height="15.64" transform="translate(151.22 -9.96) rotate(101.03)"/>
      <rect x="77.9" y="39.02" width="3.88" height="15.38" transform="translate(111.62 -40.16) rotate(79.77)"/>
      <rect x="28.63" y="59.68" width="3.88" height="15.44" transform="translate(-2.62 133.53) rotate(-128.95)"/>
      <rect x="55.42" y="17.72" width="3.88" height="15.63" transform="translate(5.95 -10.51) rotate(11.03)"/>
      <rect x="94.18" y="43.08" width="3.88" height="17.98" transform="translate(148.19 -44.05) rotate(90)"/>
      <rect x="7.05" y="43.08" width="3.88" height="17.98" transform="translate(61.06 43.08) rotate(90)"/>
      <rect x="10.71" y="59.6" width="3.88" height="17.98" transform="translate(67.26 25.21) rotate(61.99)"/>
      <rect x="91.43" y="26.07" width="3.88" height="17.98" transform="translate(85.41 -64.36) rotate(64.84)"/>
      <rect x="10.71" y="27.09" width="3.88" height="17.98" transform="translate(-25.51 33.71) rotate(-67.13)"/>
      <rect x="91.11" y="59.6" width="3.88" height="17.98" transform="translate(-6.31 127.67) rotate(-67.13)"/>
      <rect x="51.37" y="0" width="3.88" height="17.98"/>
      <rect x="34.36" y="2.75" width="3.88" height="17.98" transform="translate(-1.55 16.55) rotate(-25.16)"/>
      <rect x="67.89" y="3.07" width="3.88" height="17.98" transform="translate(129.48 50.31) rotate(-157.13)"/>
      <rect x="50.97" y="86.14" width="3.88" height="17.98" transform="translate(105.83 190.25) rotate(180)"/>
      <rect x="67.99" y="83.39" width="3.88" height="17.98" transform="translate(172.5 146.27) rotate(154.84)"/>
      <rect x="34.45" y="83.07" width="3.88" height="17.98" transform="translate(38.64 -6.91) rotate(22.87)"/>
      <rect x="19.96" y="12.07" width="3.88" height="17.98" transform="translate(-8.43 22.91) rotate(-47.37)"/>
      <rect x="81.61" y="73.27" width="3.88" height="17.98" transform="translate(-33.56 88.02) rotate(-47.37)"/>
      <rect x="81.61" y="12.45" width="3.88" height="17.98" transform="translate(39.63 -52.8) rotate(45)"/>
      <rect x="20.79" y="73.27" width="3.88" height="17.98" transform="translate(64.82 8.02) rotate(45)"/>
    </g>
  </g>
</svg>