<?xml version="1.0" encoding="UTF-8"?>
<svg id="Calque_2" data-name="Calque 2" xmlns="http://www.w3.org/2000/svg" viewBox="0 0 566.9 197.6">
  <defs>
    <style>
      .cls-1 {
        fill: #fff;
      }
    </style>
  </defs>
  <g id="Calque_1-2" data-name="Calque 1">
    <path class="cls-1" d="m41.5,89.9c0-21.9,17.6-39.8,39.3-39.8s39.4,17.9,39.4,39.8-17.7,39.7-39.4,39.7c-21.6.1-39.3-17.8-39.3-39.7ZM566.9,0v197.6H0V0h566.9ZM18.7,77.2c0,34.4,27.8,62.3,62.2,62.3s62.2-27.9,62.2-62.3S115.3,14.8,80.9,14.8c-34.4,0-62.2,27.9-62.2,62.4ZM4.3,32c6.4-11,15.2-20.4,25.5-27.7H4.3v27.7ZM562.6,4.3H132c22.9,16.1,37.8,42.7,37.8,72.9,0,49.2-39.8,89.1-88.9,89.1-32.6,0-61.1-17.6-76.6-43.9v70.9h558.3V4.3ZM252.2,39.9h15.7v32.9h15.4v13.4h-31.1v-46.3h0Zm36.8,22.9c0-3.7.7-7.1,2-10.1,1.3-3,3.1-5.5,5.4-7.6s5-3.7,8.2-4.8c3.1-1.1,6.5-1.7,10.2-1.7s7.1.6,10.2,1.7c3.1,1.1,5.9,2.8,8.2,4.8,2.3,2.1,4.1,4.6,5.4,7.6s2,6.4,2,10.1-.7,7.1-2,10.2-3.1,5.7-5.4,7.8c-2.3,2.2-5,3.8-8.2,5-3.1,1.2-6.6,1.8-10.2,1.8s-7.1-.6-10.2-1.8c-3.1-1.2-5.9-2.8-8.2-5-2.3-2.2-4.1-4.8-5.4-7.8-1.3-3.1-2-6.5-2-10.2Zm16.6,0c0,1.5.2,2.9.7,4.2s1.1,2.4,1.9,3.3,1.8,1.6,2.9,2.1,2.4.8,3.7.8,2.5-.2,3.6-.8c1.1-.5,2.1-1.2,2.9-2.1s1.5-2,1.9-3.3c.5-1.3.7-2.7.7-4.2s-.2-2.8-.7-4.1c-.5-1.2-1.1-2.3-1.9-3.1s-1.8-1.5-2.9-2-2.3-.7-3.6-.7-2.5.2-3.7.7c-1.1.5-2.1,1.2-2.9,2s-1.4,1.9-1.9,3.1c-.4,1.3-.7,2.6-.7,4.1Zm67.1,23.5h-15.6v-33.3h-11.4v-13.1h38.4v13.1h-11.4v33.3Zm20-46.4h31.9v13h-17.2v4h16.2v12.1h-16.2v4.3h18.4v13h-33v-46.4h-.1Zm43.4,0h20c2.3,0,4.5.2,6.8.7s4.3,1.3,6,2.4c1.8,1.2,3.2,2.7,4.3,4.7,1.1,1.9,1.6,4.4,1.6,7.3s-.7,5.3-2.1,7.5-3.4,3.8-6,5l11.8,18.8h-17.9l-8.9-16.6h-.5v16.6h-15.1v-46.4h0Zm15,19.6h3.1c.5,0,1.1,0,1.7-.1s1.2-.3,1.8-.6c.5-.3,1-.7,1.4-1.2s.6-1.2.6-2-.2-1.5-.5-2-.7-.8-1.2-1.1c-.5-.2-1-.4-1.5-.5-.6-.1-1.1-.1-1.6-.1h-3.7v7.6h-.1Zm33.2-19.6h15.7v46.4h-15.7v-46.4Zm25.6,0h31.9v13h-17.2v4h16.2v12.1h-16.2v4.3h18.4v13h-33v-46.4h-.1ZM182.8,107.6h19.9c2.3,0,4.5.2,6.8.7,2.2.5,4.2,1.3,6,2.4,1.8,1.2,3.2,2.7,4.3,4.7,1.1,1.9,1.6,4.4,1.6,7.3s-.7,5.3-2.1,7.5c-1.4,2.2-3.4,3.8-6,5l11.7,18.8h-17.9l-8.9-16.5h-.5v16.5h-15.1v-46.4h.2Zm15,19.5h3c.5,0,1.1,0,1.7-.1.6-.1,1.2-.3,1.7-.6.5-.3,1-.7,1.4-1.2s.5-1.2.5-2-.2-1.5-.5-2-.7-.8-1.2-1.1c-.5-.2-1-.4-1.6-.5s-1.1-.1-1.6-.1h-3.7v7.6h.3Zm29.8,3.4c0-3.7.7-7,2-10s3.1-5.5,5.4-7.6c2.3-2.1,5-3.7,8.1-4.8,3.1-1.1,6.6-1.7,10.2-1.7s7.1.6,10.2,1.7,5.9,2.7,8.2,4.8c2.3,2.1,4.1,4.6,5.4,7.6s2,6.3,2,10-.7,7.1-2,10.1c-1.3,3.1-3.1,5.7-5.4,7.8-2.3,2.2-5,3.8-8.2,5-3.1,1.2-6.5,1.8-10.2,1.8s-7.1-.6-10.2-1.8c-3.1-1.2-5.8-2.8-8.1-5s-4.1-4.8-5.4-7.8c-1.4-3-2-6.4-2-10.1Zm16.5,0c0,1.5.2,2.9.7,4.2s1.1,2.4,1.9,3.3c.8.9,1.8,1.6,2.9,2.1,1.1.5,2.4.8,3.7.8s2.5-.3,3.6-.8,2.1-1.2,2.9-2.1c.8-.9,1.5-2,1.9-3.3s.7-2.7.7-4.2-.2-2.8-.7-4.1c-.5-1.2-1.1-2.3-1.9-3.1-.8-.8-1.8-1.5-2.9-2s-2.3-.7-3.6-.7-2.5.2-3.7.7c-1.1.5-2.1,1.2-2.9,2-.8.9-1.4,1.9-1.9,3.1s-.7,2.6-.7,4.1Zm55.3-2.8l.7,26.2h-14.5v-46.3h20.4l8.4,24.9h.3l7.3-24.9h21v46.3h-15.2l.5-26-.4-.1-8.6,26.1h-11l-8.5-26.2h-.4Zm67.3-20.1h16.5l18,46.3h-16.9l-2.4-6.8h-14.7l-2.3,6.8h-16.5l18.3-46.3Zm8,16.1l-3.8,11.5h7.5l-3.7-11.5Zm32.1-16.1h15.5l13.2,23.5h.3l-.6-23.5h14.8v46.3h-16l-12.8-22.1h-.3l.7,22.1h-14.8v-46.3h0Zm51.7,46.3v-46.3h17.3c3.7,0,7.2.4,10.5,1.1s6.3,2,8.8,3.7c2.6,1.8,4.6,4.1,6.1,7s2.3,6.6,2.3,11c0,4.1-.7,7.6-2.2,10.5-1.5,3-3.4,5.4-5.9,7.3-2.4,1.9-5.3,3.3-8.4,4.2-3.2.9-6.5,1.4-9.9,1.4h-18.6v.1Zm15-33.1v19.7h2.9c3.7,0,6.5-.8,8.4-2.4,2-1.6,2.9-4.2,2.9-7.8,0-3-1-5.3-2.9-7-2-1.7-4.6-2.5-7.9-2.5h-3.4Zm36.5-13.2h31.8v12.9h-17.2v4h16.1v12.1h-16.1v4.3h18.4v12.9h-33v-46.2Z"/>
  </g>
</svg>